<mxfile host="Electron" modified="2023-11-02T18:32:55.644Z" agent="Mozilla/5.0 (Windows NT 10.0; Win64; x64) AppleWebKit/537.36 (KHTML, like Gecko) draw.io/22.0.2 Chrome/114.0.5735.289 Electron/25.8.4 Safari/537.36" etag="XV_njeK80IdN2RlDgoOX" version="22.0.2" type="device">
  <diagram id="prtHgNgQTEPvFCAcTncT" name="Page-1">
    <mxGraphModel dx="1134" dy="662" grid="1" gridSize="10" guides="1" tooltips="1" connect="1" arrows="1" fold="1" page="1" pageScale="1" pageWidth="827" pageHeight="1169" math="0" shadow="0">
      <root>
        <mxCell id="0" />
        <mxCell id="1" parent="0" />
        <mxCell id="dNxyNK7c78bLwvsdeMH5-19" value="Pool" style="swimlane;html=1;childLayout=stackLayout;resizeParent=1;resizeParentMax=0;horizontal=0;startSize=20;horizontalStack=0;" parent="1" vertex="1">
          <mxGeometry x="120" y="120" width="3160" height="610" as="geometry" />
        </mxCell>
        <mxCell id="dNxyNK7c78bLwvsdeMH5-20" value="User" style="swimlane;html=1;startSize=20;horizontal=0;" parent="dNxyNK7c78bLwvsdeMH5-19" vertex="1">
          <mxGeometry x="20" width="3140" height="120" as="geometry" />
        </mxCell>
        <mxCell id="dNxyNK7c78bLwvsdeMH5-25" value="" style="edgeStyle=orthogonalEdgeStyle;rounded=0;orthogonalLoop=1;jettySize=auto;html=1;" parent="dNxyNK7c78bLwvsdeMH5-20" source="dNxyNK7c78bLwvsdeMH5-23" target="dNxyNK7c78bLwvsdeMH5-24" edge="1">
          <mxGeometry relative="1" as="geometry" />
        </mxCell>
        <mxCell id="dNxyNK7c78bLwvsdeMH5-23" value="Start" style="ellipse;whiteSpace=wrap;html=1;" parent="dNxyNK7c78bLwvsdeMH5-20" vertex="1">
          <mxGeometry x="40" y="40" width="40" height="40" as="geometry" />
        </mxCell>
        <mxCell id="dNxyNK7c78bLwvsdeMH5-24" value="Open the app" style="rounded=0;whiteSpace=wrap;html=1;fontFamily=Helvetica;fontSize=12;fontColor=#000000;align=center;" parent="dNxyNK7c78bLwvsdeMH5-20" vertex="1">
          <mxGeometry x="120" y="30" width="80" height="60" as="geometry" />
        </mxCell>
        <mxCell id="dNxyNK7c78bLwvsdeMH5-32" value="End" style="ellipse;whiteSpace=wrap;html=1;" parent="dNxyNK7c78bLwvsdeMH5-20" vertex="1">
          <mxGeometry x="3050" y="40" width="40" height="40" as="geometry" />
        </mxCell>
        <mxCell id="5Te7iBHdmbYl0dE0gqCW-13" value="Select Movie" style="rounded=0;whiteSpace=wrap;html=1;fontFamily=Helvetica;fontSize=12;fontColor=#000000;align=center;" vertex="1" parent="dNxyNK7c78bLwvsdeMH5-20">
          <mxGeometry x="310" y="30" width="80" height="60" as="geometry" />
        </mxCell>
        <mxCell id="5Te7iBHdmbYl0dE0gqCW-88" value="Create new Review" style="whiteSpace=wrap;html=1;fontColor=#000000;" vertex="1" parent="dNxyNK7c78bLwvsdeMH5-20">
          <mxGeometry x="2380" y="30" width="120" height="60" as="geometry" />
        </mxCell>
        <mxCell id="5Te7iBHdmbYl0dE0gqCW-103" value="" style="edgeStyle=orthogonalEdgeStyle;rounded=0;orthogonalLoop=1;jettySize=auto;html=1;" edge="1" parent="dNxyNK7c78bLwvsdeMH5-20" source="5Te7iBHdmbYl0dE0gqCW-101" target="dNxyNK7c78bLwvsdeMH5-32">
          <mxGeometry relative="1" as="geometry" />
        </mxCell>
        <mxCell id="5Te7iBHdmbYl0dE0gqCW-101" value="Close app" style="whiteSpace=wrap;html=1;fontColor=#000000;" vertex="1" parent="dNxyNK7c78bLwvsdeMH5-20">
          <mxGeometry x="2860" y="30" width="120" height="60" as="geometry" />
        </mxCell>
        <mxCell id="dNxyNK7c78bLwvsdeMH5-21" value="React App" style="swimlane;html=1;startSize=20;horizontal=0;" parent="dNxyNK7c78bLwvsdeMH5-19" vertex="1">
          <mxGeometry x="20" y="120" width="3140" height="120" as="geometry" />
        </mxCell>
        <mxCell id="dNxyNK7c78bLwvsdeMH5-26" value="Load Movies Video" style="rounded=0;whiteSpace=wrap;html=1;fontFamily=Helvetica;fontSize=12;fontColor=#000000;align=center;" parent="dNxyNK7c78bLwvsdeMH5-21" vertex="1">
          <mxGeometry x="130" y="30" width="80" height="60" as="geometry" />
        </mxCell>
        <mxCell id="5Te7iBHdmbYl0dE0gqCW-12" value="Show Movies" style="rounded=0;whiteSpace=wrap;html=1;fontFamily=Helvetica;fontSize=12;fontColor=#000000;align=center;" vertex="1" parent="dNxyNK7c78bLwvsdeMH5-21">
          <mxGeometry x="274" y="40" width="80" height="60" as="geometry" />
        </mxCell>
        <mxCell id="5Te7iBHdmbYl0dE0gqCW-17" value="Call open movie" style="rounded=0;whiteSpace=wrap;html=1;fontFamily=Helvetica;fontSize=12;fontColor=#000000;align=center;" vertex="1" parent="dNxyNK7c78bLwvsdeMH5-21">
          <mxGeometry x="380" y="40" width="80" height="60" as="geometry" />
        </mxCell>
        <mxCell id="5Te7iBHdmbYl0dE0gqCW-34" value="Open movie page" style="whiteSpace=wrap;html=1;fontColor=#000000;" vertex="1" parent="dNxyNK7c78bLwvsdeMH5-21">
          <mxGeometry x="2330" y="40" width="120" height="60" as="geometry" />
        </mxCell>
        <mxCell id="5Te7iBHdmbYl0dE0gqCW-39" value="Call get movie by Name from TMBD" style="whiteSpace=wrap;html=1;fontColor=#000000;" vertex="1" parent="dNxyNK7c78bLwvsdeMH5-21">
          <mxGeometry x="550" y="40" width="120" height="60" as="geometry" />
        </mxCell>
        <mxCell id="5Te7iBHdmbYl0dE0gqCW-49" value="Call get movie data by TMDB ID" style="whiteSpace=wrap;html=1;fontColor=#000000;" vertex="1" parent="dNxyNK7c78bLwvsdeMH5-21">
          <mxGeometry x="990" y="40" width="120" height="60" as="geometry" />
        </mxCell>
        <mxCell id="5Te7iBHdmbYl0dE0gqCW-59" value="Call get movie Images by TMBD ID" style="whiteSpace=wrap;html=1;fontColor=#000000;" vertex="1" parent="dNxyNK7c78bLwvsdeMH5-21">
          <mxGeometry x="1320" y="40" width="120" height="60" as="geometry" />
        </mxCell>
        <mxCell id="5Te7iBHdmbYl0dE0gqCW-69" value="Call get movie Videos by TMBD ID" style="whiteSpace=wrap;html=1;fontColor=#000000;" vertex="1" parent="dNxyNK7c78bLwvsdeMH5-21">
          <mxGeometry x="1600" y="40" width="120" height="60" as="geometry" />
        </mxCell>
        <mxCell id="5Te7iBHdmbYl0dE0gqCW-77" value="Build movie body and call inster movies data to database" style="whiteSpace=wrap;html=1;fontColor=#000000;" vertex="1" parent="dNxyNK7c78bLwvsdeMH5-21">
          <mxGeometry x="1890" y="40" width="120" height="60" as="geometry" />
        </mxCell>
        <mxCell id="5Te7iBHdmbYl0dE0gqCW-90" value="Call create review" style="whiteSpace=wrap;html=1;fontColor=#000000;" vertex="1" parent="dNxyNK7c78bLwvsdeMH5-21">
          <mxGeometry x="2510" y="40" width="120" height="60" as="geometry" />
        </mxCell>
        <mxCell id="5Te7iBHdmbYl0dE0gqCW-98" value="Show new data" style="whiteSpace=wrap;html=1;fontColor=#000000;" vertex="1" parent="dNxyNK7c78bLwvsdeMH5-21">
          <mxGeometry x="2780" y="40" width="120" height="60" as="geometry" />
        </mxCell>
        <mxCell id="dNxyNK7c78bLwvsdeMH5-22" value="Backend App" style="swimlane;html=1;startSize=20;horizontal=0;" parent="dNxyNK7c78bLwvsdeMH5-19" vertex="1">
          <mxGeometry x="20" y="240" width="3140" height="130" as="geometry" />
        </mxCell>
        <mxCell id="dNxyNK7c78bLwvsdeMH5-34" value="Call&amp;nbsp;&lt;br&gt;getAllMovies" style="rounded=0;whiteSpace=wrap;html=1;fontFamily=Helvetica;fontSize=12;fontColor=#000000;align=center;" parent="dNxyNK7c78bLwvsdeMH5-22" vertex="1">
          <mxGeometry x="140" y="30" width="80" height="60" as="geometry" />
        </mxCell>
        <mxCell id="5Te7iBHdmbYl0dE0gqCW-9" value="Return Movies JSON data" style="rounded=0;whiteSpace=wrap;html=1;fontFamily=Helvetica;fontSize=12;fontColor=#000000;align=center;" vertex="1" parent="dNxyNK7c78bLwvsdeMH5-22">
          <mxGeometry x="233" y="30" width="80" height="60" as="geometry" />
        </mxCell>
        <mxCell id="5Te7iBHdmbYl0dE0gqCW-41" value="" style="edgeStyle=orthogonalEdgeStyle;rounded=0;orthogonalLoop=1;jettySize=auto;html=1;" edge="1" parent="dNxyNK7c78bLwvsdeMH5-22" source="5Te7iBHdmbYl0dE0gqCW-25" target="5Te7iBHdmbYl0dE0gqCW-32">
          <mxGeometry relative="1" as="geometry" />
        </mxCell>
        <mxCell id="5Te7iBHdmbYl0dE0gqCW-25" value="Movie Exist" style="rhombus;whiteSpace=wrap;html=1;fontFamily=Helvetica;fontSize=12;fontColor=#000000;align=center;" vertex="1" parent="dNxyNK7c78bLwvsdeMH5-22">
          <mxGeometry x="550" y="50" width="60" height="60" as="geometry" />
        </mxCell>
        <mxCell id="5Te7iBHdmbYl0dE0gqCW-26" value="Call get movie" style="rounded=0;whiteSpace=wrap;html=1;fontFamily=Helvetica;fontSize=12;fontColor=#000000;align=center;" vertex="1" parent="dNxyNK7c78bLwvsdeMH5-22">
          <mxGeometry x="410" y="35" width="80" height="60" as="geometry" />
        </mxCell>
        <mxCell id="5Te7iBHdmbYl0dE0gqCW-32" value="Return movie data" style="whiteSpace=wrap;html=1;fontColor=#000000;" vertex="1" parent="dNxyNK7c78bLwvsdeMH5-22">
          <mxGeometry x="670" y="50" width="120" height="60" as="geometry" />
        </mxCell>
        <mxCell id="5Te7iBHdmbYl0dE0gqCW-36" value="Yes" style="text;html=1;strokeColor=none;fillColor=none;align=center;verticalAlign=middle;whiteSpace=wrap;rounded=0;" vertex="1" parent="dNxyNK7c78bLwvsdeMH5-22">
          <mxGeometry x="600" y="50" width="60" height="30" as="geometry" />
        </mxCell>
        <mxCell id="5Te7iBHdmbYl0dE0gqCW-40" value="No" style="text;html=1;strokeColor=none;fillColor=none;align=center;verticalAlign=middle;whiteSpace=wrap;rounded=0;" vertex="1" parent="dNxyNK7c78bLwvsdeMH5-22">
          <mxGeometry x="560" y="5" width="60" height="30" as="geometry" />
        </mxCell>
        <mxCell id="5Te7iBHdmbYl0dE0gqCW-43" value="Call get movie by Name from TMBD" style="whiteSpace=wrap;html=1;fontColor=#000000;" vertex="1" parent="dNxyNK7c78bLwvsdeMH5-22">
          <mxGeometry x="820" y="50" width="120" height="60" as="geometry" />
        </mxCell>
        <mxCell id="5Te7iBHdmbYl0dE0gqCW-47" value="Return Movie list by Name in JSON" style="whiteSpace=wrap;html=1;fontColor=#000000;" vertex="1" parent="dNxyNK7c78bLwvsdeMH5-22">
          <mxGeometry x="970" y="50" width="120" height="60" as="geometry" />
        </mxCell>
        <mxCell id="5Te7iBHdmbYl0dE0gqCW-52" value="Call get movie data by TMDB ID" style="whiteSpace=wrap;html=1;fontColor=#000000;" vertex="1" parent="dNxyNK7c78bLwvsdeMH5-22">
          <mxGeometry x="1130" y="50" width="120" height="60" as="geometry" />
        </mxCell>
        <mxCell id="5Te7iBHdmbYl0dE0gqCW-56" value="Return movie data by TMBD ID&amp;nbsp;in JSON" style="whiteSpace=wrap;html=1;fontColor=#000000;" vertex="1" parent="dNxyNK7c78bLwvsdeMH5-22">
          <mxGeometry x="1290" y="50" width="120" height="60" as="geometry" />
        </mxCell>
        <mxCell id="5Te7iBHdmbYl0dE0gqCW-62" value="Call get movie Images by TMBD ID" style="whiteSpace=wrap;html=1;fontColor=#000000;" vertex="1" parent="dNxyNK7c78bLwvsdeMH5-22">
          <mxGeometry x="1430" y="50" width="120" height="60" as="geometry" />
        </mxCell>
        <mxCell id="5Te7iBHdmbYl0dE0gqCW-66" value="Return movie Images by TMBD ID in JSON" style="whiteSpace=wrap;html=1;fontColor=#000000;" vertex="1" parent="dNxyNK7c78bLwvsdeMH5-22">
          <mxGeometry x="1580" y="50" width="120" height="60" as="geometry" />
        </mxCell>
        <mxCell id="5Te7iBHdmbYl0dE0gqCW-71" value="Call get movie Videos by TMBD ID" style="whiteSpace=wrap;html=1;fontColor=#000000;" vertex="1" parent="dNxyNK7c78bLwvsdeMH5-22">
          <mxGeometry x="1710" y="50" width="120" height="60" as="geometry" />
        </mxCell>
        <mxCell id="5Te7iBHdmbYl0dE0gqCW-75" value="Return movie Videos by TMBD ID in JSON" style="whiteSpace=wrap;html=1;fontColor=#000000;" vertex="1" parent="dNxyNK7c78bLwvsdeMH5-22">
          <mxGeometry x="1860" y="50" width="120" height="60" as="geometry" />
        </mxCell>
        <mxCell id="5Te7iBHdmbYl0dE0gqCW-80" value="Call insert movie data to database" style="whiteSpace=wrap;html=1;fontColor=#000000;" vertex="1" parent="dNxyNK7c78bLwvsdeMH5-22">
          <mxGeometry x="2020" y="50" width="120" height="60" as="geometry" />
        </mxCell>
        <mxCell id="5Te7iBHdmbYl0dE0gqCW-84" value="Return created movie in JSON" style="whiteSpace=wrap;html=1;fontColor=#000000;" vertex="1" parent="dNxyNK7c78bLwvsdeMH5-22">
          <mxGeometry x="2190" y="50" width="120" height="60" as="geometry" />
        </mxCell>
        <mxCell id="5Te7iBHdmbYl0dE0gqCW-92" value="Call create review in database" style="whiteSpace=wrap;html=1;fontColor=#000000;" vertex="1" parent="dNxyNK7c78bLwvsdeMH5-22">
          <mxGeometry x="2550" y="50" width="120" height="60" as="geometry" />
        </mxCell>
        <mxCell id="5Te7iBHdmbYl0dE0gqCW-96" value="Return new movie and reviews data" style="whiteSpace=wrap;html=1;fontColor=#000000;" vertex="1" parent="dNxyNK7c78bLwvsdeMH5-22">
          <mxGeometry x="2740" y="50" width="120" height="60" as="geometry" />
        </mxCell>
        <mxCell id="5Te7iBHdmbYl0dE0gqCW-21" value="TMBD API" style="swimlane;html=1;startSize=20;horizontal=0;" vertex="1" parent="dNxyNK7c78bLwvsdeMH5-19">
          <mxGeometry x="20" y="370" width="3140" height="120" as="geometry" />
        </mxCell>
        <mxCell id="5Te7iBHdmbYl0dE0gqCW-45" value="Return Movie list by Name" style="whiteSpace=wrap;html=1;fontColor=#000000;" vertex="1" parent="5Te7iBHdmbYl0dE0gqCW-21">
          <mxGeometry x="850" y="30" width="120" height="60" as="geometry" />
        </mxCell>
        <mxCell id="5Te7iBHdmbYl0dE0gqCW-54" value="Return movie data by TMBD ID" style="whiteSpace=wrap;html=1;fontColor=#000000;" vertex="1" parent="5Te7iBHdmbYl0dE0gqCW-21">
          <mxGeometry x="1180" y="30" width="120" height="60" as="geometry" />
        </mxCell>
        <mxCell id="5Te7iBHdmbYl0dE0gqCW-64" value="Return movie Images by TMBD ID" style="whiteSpace=wrap;html=1;fontColor=#000000;" vertex="1" parent="5Te7iBHdmbYl0dE0gqCW-21">
          <mxGeometry x="1460" y="35" width="120" height="60" as="geometry" />
        </mxCell>
        <mxCell id="5Te7iBHdmbYl0dE0gqCW-73" value="Return movie Videos by TMBD ID" style="whiteSpace=wrap;html=1;fontColor=#000000;" vertex="1" parent="5Te7iBHdmbYl0dE0gqCW-21">
          <mxGeometry x="1740" y="35" width="120" height="60" as="geometry" />
        </mxCell>
        <mxCell id="5Te7iBHdmbYl0dE0gqCW-1" value="Database" style="swimlane;html=1;startSize=20;horizontal=0;" vertex="1" parent="dNxyNK7c78bLwvsdeMH5-19">
          <mxGeometry x="20" y="490" width="3140" height="120" as="geometry" />
        </mxCell>
        <mxCell id="5Te7iBHdmbYl0dE0gqCW-7" value="Return all Movies data" style="rounded=0;whiteSpace=wrap;html=1;fontFamily=Helvetica;fontSize=12;fontColor=#000000;align=center;" vertex="1" parent="5Te7iBHdmbYl0dE0gqCW-1">
          <mxGeometry x="160" y="30" width="80" height="60" as="geometry" />
        </mxCell>
        <mxCell id="5Te7iBHdmbYl0dE0gqCW-29" value="Retur movie data" style="rounded=0;whiteSpace=wrap;html=1;fontFamily=Helvetica;fontSize=12;fontColor=#000000;align=center;" vertex="1" parent="5Te7iBHdmbYl0dE0gqCW-1">
          <mxGeometry x="450" y="20" width="80" height="60" as="geometry" />
        </mxCell>
        <mxCell id="5Te7iBHdmbYl0dE0gqCW-82" value="Insert movie to database" style="whiteSpace=wrap;html=1;fontColor=#000000;" vertex="1" parent="5Te7iBHdmbYl0dE0gqCW-1">
          <mxGeometry x="2060" y="20" width="120" height="60" as="geometry" />
        </mxCell>
        <mxCell id="5Te7iBHdmbYl0dE0gqCW-94" value="Insert new Review" style="whiteSpace=wrap;html=1;fontColor=#000000;" vertex="1" parent="5Te7iBHdmbYl0dE0gqCW-1">
          <mxGeometry x="2620" y="20" width="120" height="60" as="geometry" />
        </mxCell>
        <mxCell id="5Te7iBHdmbYl0dE0gqCW-5" style="edgeStyle=orthogonalEdgeStyle;rounded=0;orthogonalLoop=1;jettySize=auto;html=1;endArrow=classic;endFill=1;" edge="1" parent="dNxyNK7c78bLwvsdeMH5-19" source="dNxyNK7c78bLwvsdeMH5-24" target="dNxyNK7c78bLwvsdeMH5-26">
          <mxGeometry relative="1" as="geometry">
            <mxPoint x="310" y="210" as="sourcePoint" />
            <mxPoint x="310" y="270" as="targetPoint" />
            <Array as="points">
              <mxPoint x="180" y="110" />
              <mxPoint x="190" y="110" />
            </Array>
          </mxGeometry>
        </mxCell>
        <mxCell id="5Te7iBHdmbYl0dE0gqCW-6" style="edgeStyle=orthogonalEdgeStyle;rounded=0;orthogonalLoop=1;jettySize=auto;html=1;endArrow=classic;endFill=1;" edge="1" parent="dNxyNK7c78bLwvsdeMH5-19" source="dNxyNK7c78bLwvsdeMH5-26" target="dNxyNK7c78bLwvsdeMH5-34">
          <mxGeometry relative="1" as="geometry">
            <mxPoint x="190" y="100" as="sourcePoint" />
            <mxPoint x="190" y="160" as="targetPoint" />
            <Array as="points">
              <mxPoint x="190" y="230" />
              <mxPoint x="200" y="230" />
            </Array>
          </mxGeometry>
        </mxCell>
        <mxCell id="5Te7iBHdmbYl0dE0gqCW-8" style="edgeStyle=orthogonalEdgeStyle;rounded=0;orthogonalLoop=1;jettySize=auto;html=1;endArrow=classic;endFill=1;" edge="1" parent="dNxyNK7c78bLwvsdeMH5-19" source="dNxyNK7c78bLwvsdeMH5-34" target="5Te7iBHdmbYl0dE0gqCW-7">
          <mxGeometry relative="1" as="geometry">
            <mxPoint x="200" y="220" as="sourcePoint" />
            <mxPoint x="210" y="280" as="targetPoint" />
            <Array as="points">
              <mxPoint x="200" y="350" />
              <mxPoint x="220" y="350" />
            </Array>
          </mxGeometry>
        </mxCell>
        <mxCell id="5Te7iBHdmbYl0dE0gqCW-10" style="edgeStyle=orthogonalEdgeStyle;rounded=0;orthogonalLoop=1;jettySize=auto;html=1;endArrow=classic;endFill=1;" edge="1" parent="dNxyNK7c78bLwvsdeMH5-19" source="5Te7iBHdmbYl0dE0gqCW-7" target="5Te7iBHdmbYl0dE0gqCW-9">
          <mxGeometry relative="1" as="geometry">
            <mxPoint x="210" y="340" as="sourcePoint" />
            <mxPoint x="230" y="400" as="targetPoint" />
            <Array as="points">
              <mxPoint x="240" y="350" />
              <mxPoint x="293" y="350" />
            </Array>
          </mxGeometry>
        </mxCell>
        <mxCell id="5Te7iBHdmbYl0dE0gqCW-11" style="edgeStyle=orthogonalEdgeStyle;rounded=0;orthogonalLoop=1;jettySize=auto;html=1;endArrow=classic;endFill=1;" edge="1" parent="dNxyNK7c78bLwvsdeMH5-19" source="5Te7iBHdmbYl0dE0gqCW-9" target="5Te7iBHdmbYl0dE0gqCW-12">
          <mxGeometry relative="1" as="geometry">
            <mxPoint x="250" y="400" as="sourcePoint" />
            <mxPoint x="303" y="340" as="targetPoint" />
            <Array as="points">
              <mxPoint x="300" y="260" />
              <mxPoint x="320" y="260" />
            </Array>
          </mxGeometry>
        </mxCell>
        <mxCell id="5Te7iBHdmbYl0dE0gqCW-16" value="" style="endArrow=classic;html=1;rounded=0;edgeStyle=orthogonalEdgeStyle;" edge="1" parent="dNxyNK7c78bLwvsdeMH5-19" source="5Te7iBHdmbYl0dE0gqCW-12" target="5Te7iBHdmbYl0dE0gqCW-13">
          <mxGeometry width="50" height="50" relative="1" as="geometry">
            <mxPoint x="460" y="170" as="sourcePoint" />
            <mxPoint x="510" y="120" as="targetPoint" />
          </mxGeometry>
        </mxCell>
        <mxCell id="5Te7iBHdmbYl0dE0gqCW-18" value="" style="endArrow=classic;html=1;rounded=0;edgeStyle=orthogonalEdgeStyle;" edge="1" parent="dNxyNK7c78bLwvsdeMH5-19" source="5Te7iBHdmbYl0dE0gqCW-13" target="5Te7iBHdmbYl0dE0gqCW-17">
          <mxGeometry width="50" height="50" relative="1" as="geometry">
            <mxPoint x="344" y="170" as="sourcePoint" />
            <mxPoint x="380" y="100" as="targetPoint" />
            <Array as="points">
              <mxPoint x="390" y="125" />
              <mxPoint x="440" y="125" />
            </Array>
          </mxGeometry>
        </mxCell>
        <mxCell id="5Te7iBHdmbYl0dE0gqCW-28" value="" style="endArrow=classic;html=1;rounded=0;edgeStyle=orthogonalEdgeStyle;" edge="1" parent="dNxyNK7c78bLwvsdeMH5-19" source="5Te7iBHdmbYl0dE0gqCW-17" target="5Te7iBHdmbYl0dE0gqCW-26">
          <mxGeometry width="50" height="50" relative="1" as="geometry">
            <mxPoint x="280" y="270" as="sourcePoint" />
            <mxPoint x="330" y="220" as="targetPoint" />
          </mxGeometry>
        </mxCell>
        <mxCell id="5Te7iBHdmbYl0dE0gqCW-30" value="" style="endArrow=classic;html=1;rounded=0;edgeStyle=orthogonalEdgeStyle;" edge="1" parent="dNxyNK7c78bLwvsdeMH5-19" source="5Te7iBHdmbYl0dE0gqCW-26" target="5Te7iBHdmbYl0dE0gqCW-29">
          <mxGeometry width="50" height="50" relative="1" as="geometry">
            <mxPoint x="280" y="410" as="sourcePoint" />
            <mxPoint x="330" y="360" as="targetPoint" />
          </mxGeometry>
        </mxCell>
        <mxCell id="5Te7iBHdmbYl0dE0gqCW-31" value="" style="endArrow=classic;html=1;rounded=0;edgeStyle=orthogonalEdgeStyle;" edge="1" parent="dNxyNK7c78bLwvsdeMH5-19" source="5Te7iBHdmbYl0dE0gqCW-29" target="5Te7iBHdmbYl0dE0gqCW-25">
          <mxGeometry width="50" height="50" relative="1" as="geometry">
            <mxPoint x="480" y="345" as="sourcePoint" />
            <mxPoint x="520" y="520" as="targetPoint" />
          </mxGeometry>
        </mxCell>
        <mxCell id="5Te7iBHdmbYl0dE0gqCW-38" value="" style="edgeStyle=orthogonalEdgeStyle;rounded=0;orthogonalLoop=1;jettySize=auto;html=1;" edge="1" parent="dNxyNK7c78bLwvsdeMH5-19" source="5Te7iBHdmbYl0dE0gqCW-25" target="5Te7iBHdmbYl0dE0gqCW-39">
          <mxGeometry relative="1" as="geometry">
            <Array as="points">
              <mxPoint x="600" y="270" />
              <mxPoint x="620" y="270" />
            </Array>
          </mxGeometry>
        </mxCell>
        <mxCell id="5Te7iBHdmbYl0dE0gqCW-42" value="" style="edgeStyle=orthogonalEdgeStyle;rounded=0;orthogonalLoop=1;jettySize=auto;html=1;" edge="1" parent="dNxyNK7c78bLwvsdeMH5-19" source="5Te7iBHdmbYl0dE0gqCW-32" target="5Te7iBHdmbYl0dE0gqCW-34">
          <mxGeometry relative="1" as="geometry">
            <Array as="points">
              <mxPoint x="750" y="260" />
              <mxPoint x="2200" y="260" />
              <mxPoint x="2200" y="190" />
            </Array>
          </mxGeometry>
        </mxCell>
        <mxCell id="5Te7iBHdmbYl0dE0gqCW-44" value="" style="edgeStyle=orthogonalEdgeStyle;rounded=0;orthogonalLoop=1;jettySize=auto;html=1;" edge="1" parent="dNxyNK7c78bLwvsdeMH5-19" source="5Te7iBHdmbYl0dE0gqCW-39" target="5Te7iBHdmbYl0dE0gqCW-43">
          <mxGeometry relative="1" as="geometry" />
        </mxCell>
        <mxCell id="5Te7iBHdmbYl0dE0gqCW-46" value="" style="edgeStyle=orthogonalEdgeStyle;rounded=0;orthogonalLoop=1;jettySize=auto;html=1;" edge="1" parent="dNxyNK7c78bLwvsdeMH5-19" source="5Te7iBHdmbYl0dE0gqCW-43" target="5Te7iBHdmbYl0dE0gqCW-45">
          <mxGeometry relative="1" as="geometry" />
        </mxCell>
        <mxCell id="5Te7iBHdmbYl0dE0gqCW-48" value="" style="edgeStyle=orthogonalEdgeStyle;rounded=0;orthogonalLoop=1;jettySize=auto;html=1;" edge="1" parent="dNxyNK7c78bLwvsdeMH5-19" source="5Te7iBHdmbYl0dE0gqCW-45" target="5Te7iBHdmbYl0dE0gqCW-47">
          <mxGeometry relative="1" as="geometry">
            <Array as="points">
              <mxPoint x="960" y="375" />
              <mxPoint x="1050" y="375" />
            </Array>
          </mxGeometry>
        </mxCell>
        <mxCell id="5Te7iBHdmbYl0dE0gqCW-50" value="" style="edgeStyle=orthogonalEdgeStyle;rounded=0;orthogonalLoop=1;jettySize=auto;html=1;" edge="1" parent="dNxyNK7c78bLwvsdeMH5-19" source="5Te7iBHdmbYl0dE0gqCW-47" target="5Te7iBHdmbYl0dE0gqCW-49">
          <mxGeometry relative="1" as="geometry" />
        </mxCell>
        <mxCell id="5Te7iBHdmbYl0dE0gqCW-53" value="" style="edgeStyle=orthogonalEdgeStyle;rounded=0;orthogonalLoop=1;jettySize=auto;html=1;" edge="1" parent="dNxyNK7c78bLwvsdeMH5-19" source="5Te7iBHdmbYl0dE0gqCW-49" target="5Te7iBHdmbYl0dE0gqCW-52">
          <mxGeometry relative="1" as="geometry" />
        </mxCell>
        <mxCell id="5Te7iBHdmbYl0dE0gqCW-55" value="" style="edgeStyle=orthogonalEdgeStyle;rounded=0;orthogonalLoop=1;jettySize=auto;html=1;" edge="1" parent="dNxyNK7c78bLwvsdeMH5-19" source="5Te7iBHdmbYl0dE0gqCW-52" target="5Te7iBHdmbYl0dE0gqCW-54">
          <mxGeometry relative="1" as="geometry" />
        </mxCell>
        <mxCell id="5Te7iBHdmbYl0dE0gqCW-57" value="" style="edgeStyle=orthogonalEdgeStyle;rounded=0;orthogonalLoop=1;jettySize=auto;html=1;" edge="1" parent="dNxyNK7c78bLwvsdeMH5-19" source="5Te7iBHdmbYl0dE0gqCW-54" target="5Te7iBHdmbYl0dE0gqCW-56">
          <mxGeometry relative="1" as="geometry">
            <Array as="points">
              <mxPoint x="1280" y="375" />
              <mxPoint x="1370" y="375" />
            </Array>
          </mxGeometry>
        </mxCell>
        <mxCell id="5Te7iBHdmbYl0dE0gqCW-60" value="" style="edgeStyle=orthogonalEdgeStyle;rounded=0;orthogonalLoop=1;jettySize=auto;html=1;" edge="1" parent="dNxyNK7c78bLwvsdeMH5-19" source="5Te7iBHdmbYl0dE0gqCW-56" target="5Te7iBHdmbYl0dE0gqCW-59">
          <mxGeometry relative="1" as="geometry" />
        </mxCell>
        <mxCell id="5Te7iBHdmbYl0dE0gqCW-63" value="" style="edgeStyle=orthogonalEdgeStyle;rounded=0;orthogonalLoop=1;jettySize=auto;html=1;" edge="1" parent="dNxyNK7c78bLwvsdeMH5-19" source="5Te7iBHdmbYl0dE0gqCW-59" target="5Te7iBHdmbYl0dE0gqCW-62">
          <mxGeometry relative="1" as="geometry">
            <Array as="points">
              <mxPoint x="1420" y="255" />
              <mxPoint x="1510" y="255" />
            </Array>
          </mxGeometry>
        </mxCell>
        <mxCell id="5Te7iBHdmbYl0dE0gqCW-65" value="" style="edgeStyle=orthogonalEdgeStyle;rounded=0;orthogonalLoop=1;jettySize=auto;html=1;" edge="1" parent="dNxyNK7c78bLwvsdeMH5-19" source="5Te7iBHdmbYl0dE0gqCW-62" target="5Te7iBHdmbYl0dE0gqCW-64">
          <mxGeometry relative="1" as="geometry" />
        </mxCell>
        <mxCell id="5Te7iBHdmbYl0dE0gqCW-67" value="" style="edgeStyle=orthogonalEdgeStyle;rounded=0;orthogonalLoop=1;jettySize=auto;html=1;" edge="1" parent="dNxyNK7c78bLwvsdeMH5-19" source="5Te7iBHdmbYl0dE0gqCW-64" target="5Te7iBHdmbYl0dE0gqCW-66">
          <mxGeometry relative="1" as="geometry">
            <Array as="points">
              <mxPoint x="1560" y="377" />
              <mxPoint x="1660" y="377" />
            </Array>
          </mxGeometry>
        </mxCell>
        <mxCell id="5Te7iBHdmbYl0dE0gqCW-70" value="" style="edgeStyle=orthogonalEdgeStyle;rounded=0;orthogonalLoop=1;jettySize=auto;html=1;" edge="1" parent="dNxyNK7c78bLwvsdeMH5-19" source="5Te7iBHdmbYl0dE0gqCW-66" target="5Te7iBHdmbYl0dE0gqCW-69">
          <mxGeometry relative="1" as="geometry" />
        </mxCell>
        <mxCell id="5Te7iBHdmbYl0dE0gqCW-72" value="" style="edgeStyle=orthogonalEdgeStyle;rounded=0;orthogonalLoop=1;jettySize=auto;html=1;" edge="1" parent="dNxyNK7c78bLwvsdeMH5-19" source="5Te7iBHdmbYl0dE0gqCW-69" target="5Te7iBHdmbYl0dE0gqCW-71">
          <mxGeometry relative="1" as="geometry">
            <Array as="points">
              <mxPoint x="1700" y="255" />
              <mxPoint x="1790" y="255" />
            </Array>
          </mxGeometry>
        </mxCell>
        <mxCell id="5Te7iBHdmbYl0dE0gqCW-74" value="" style="edgeStyle=orthogonalEdgeStyle;rounded=0;orthogonalLoop=1;jettySize=auto;html=1;" edge="1" parent="dNxyNK7c78bLwvsdeMH5-19" source="5Te7iBHdmbYl0dE0gqCW-71" target="5Te7iBHdmbYl0dE0gqCW-73">
          <mxGeometry relative="1" as="geometry" />
        </mxCell>
        <mxCell id="5Te7iBHdmbYl0dE0gqCW-76" value="" style="edgeStyle=orthogonalEdgeStyle;rounded=0;orthogonalLoop=1;jettySize=auto;html=1;" edge="1" parent="dNxyNK7c78bLwvsdeMH5-19" source="5Te7iBHdmbYl0dE0gqCW-73" target="5Te7iBHdmbYl0dE0gqCW-75">
          <mxGeometry relative="1" as="geometry">
            <Array as="points">
              <mxPoint x="1840" y="377" />
              <mxPoint x="1940" y="377" />
            </Array>
          </mxGeometry>
        </mxCell>
        <mxCell id="5Te7iBHdmbYl0dE0gqCW-78" value="" style="edgeStyle=orthogonalEdgeStyle;rounded=0;orthogonalLoop=1;jettySize=auto;html=1;" edge="1" parent="dNxyNK7c78bLwvsdeMH5-19" source="5Te7iBHdmbYl0dE0gqCW-75" target="5Te7iBHdmbYl0dE0gqCW-77">
          <mxGeometry relative="1" as="geometry" />
        </mxCell>
        <mxCell id="5Te7iBHdmbYl0dE0gqCW-81" value="" style="edgeStyle=orthogonalEdgeStyle;rounded=0;orthogonalLoop=1;jettySize=auto;html=1;" edge="1" parent="dNxyNK7c78bLwvsdeMH5-19" source="5Te7iBHdmbYl0dE0gqCW-77" target="5Te7iBHdmbYl0dE0gqCW-80">
          <mxGeometry relative="1" as="geometry" />
        </mxCell>
        <mxCell id="5Te7iBHdmbYl0dE0gqCW-83" value="" style="edgeStyle=orthogonalEdgeStyle;rounded=0;orthogonalLoop=1;jettySize=auto;html=1;" edge="1" parent="dNxyNK7c78bLwvsdeMH5-19" source="5Te7iBHdmbYl0dE0gqCW-80" target="5Te7iBHdmbYl0dE0gqCW-82">
          <mxGeometry relative="1" as="geometry" />
        </mxCell>
        <mxCell id="5Te7iBHdmbYl0dE0gqCW-85" value="" style="edgeStyle=orthogonalEdgeStyle;rounded=0;orthogonalLoop=1;jettySize=auto;html=1;" edge="1" parent="dNxyNK7c78bLwvsdeMH5-19" source="5Te7iBHdmbYl0dE0gqCW-82" target="5Te7iBHdmbYl0dE0gqCW-84">
          <mxGeometry relative="1" as="geometry" />
        </mxCell>
        <mxCell id="5Te7iBHdmbYl0dE0gqCW-87" value="" style="edgeStyle=orthogonalEdgeStyle;rounded=0;orthogonalLoop=1;jettySize=auto;html=1;" edge="1" parent="dNxyNK7c78bLwvsdeMH5-19" source="5Te7iBHdmbYl0dE0gqCW-84" target="5Te7iBHdmbYl0dE0gqCW-34">
          <mxGeometry relative="1" as="geometry">
            <mxPoint x="2409.9999999999995" y="320.0000000000001" as="targetPoint" />
            <Array as="points">
              <mxPoint x="2270" y="280" />
              <mxPoint x="2370" y="280" />
            </Array>
          </mxGeometry>
        </mxCell>
        <mxCell id="5Te7iBHdmbYl0dE0gqCW-89" value="" style="edgeStyle=orthogonalEdgeStyle;rounded=0;orthogonalLoop=1;jettySize=auto;html=1;" edge="1" parent="dNxyNK7c78bLwvsdeMH5-19" source="5Te7iBHdmbYl0dE0gqCW-34" target="5Te7iBHdmbYl0dE0gqCW-88">
          <mxGeometry relative="1" as="geometry">
            <Array as="points">
              <mxPoint x="2410" y="110" />
              <mxPoint x="2460" y="110" />
            </Array>
          </mxGeometry>
        </mxCell>
        <mxCell id="5Te7iBHdmbYl0dE0gqCW-91" value="" style="edgeStyle=orthogonalEdgeStyle;rounded=0;orthogonalLoop=1;jettySize=auto;html=1;" edge="1" parent="dNxyNK7c78bLwvsdeMH5-19" source="5Te7iBHdmbYl0dE0gqCW-88" target="5Te7iBHdmbYl0dE0gqCW-90">
          <mxGeometry relative="1" as="geometry" />
        </mxCell>
        <mxCell id="5Te7iBHdmbYl0dE0gqCW-93" value="" style="edgeStyle=orthogonalEdgeStyle;rounded=0;orthogonalLoop=1;jettySize=auto;html=1;" edge="1" parent="dNxyNK7c78bLwvsdeMH5-19" source="5Te7iBHdmbYl0dE0gqCW-90" target="5Te7iBHdmbYl0dE0gqCW-92">
          <mxGeometry relative="1" as="geometry" />
        </mxCell>
        <mxCell id="5Te7iBHdmbYl0dE0gqCW-95" value="" style="edgeStyle=orthogonalEdgeStyle;rounded=0;orthogonalLoop=1;jettySize=auto;html=1;" edge="1" parent="dNxyNK7c78bLwvsdeMH5-19" source="5Te7iBHdmbYl0dE0gqCW-92" target="5Te7iBHdmbYl0dE0gqCW-94">
          <mxGeometry relative="1" as="geometry" />
        </mxCell>
        <mxCell id="5Te7iBHdmbYl0dE0gqCW-97" value="" style="edgeStyle=orthogonalEdgeStyle;rounded=0;orthogonalLoop=1;jettySize=auto;html=1;" edge="1" parent="dNxyNK7c78bLwvsdeMH5-19" source="5Te7iBHdmbYl0dE0gqCW-94" target="5Te7iBHdmbYl0dE0gqCW-96">
          <mxGeometry relative="1" as="geometry">
            <Array as="points">
              <mxPoint x="2730" y="430" />
              <mxPoint x="2820" y="430" />
            </Array>
          </mxGeometry>
        </mxCell>
        <mxCell id="5Te7iBHdmbYl0dE0gqCW-99" value="" style="edgeStyle=orthogonalEdgeStyle;rounded=0;orthogonalLoop=1;jettySize=auto;html=1;" edge="1" parent="dNxyNK7c78bLwvsdeMH5-19" source="5Te7iBHdmbYl0dE0gqCW-96" target="5Te7iBHdmbYl0dE0gqCW-98">
          <mxGeometry relative="1" as="geometry" />
        </mxCell>
        <mxCell id="5Te7iBHdmbYl0dE0gqCW-102" value="" style="edgeStyle=orthogonalEdgeStyle;rounded=0;orthogonalLoop=1;jettySize=auto;html=1;" edge="1" parent="dNxyNK7c78bLwvsdeMH5-19" source="5Te7iBHdmbYl0dE0gqCW-98" target="5Te7iBHdmbYl0dE0gqCW-101">
          <mxGeometry relative="1" as="geometry" />
        </mxCell>
      </root>
    </mxGraphModel>
  </diagram>
</mxfile>
